<svg width="622" height="575" viewBox="0 0 622 575" fill="none" xmlns="http://www.w3.org/2000/svg">
<g clip-path="url(#clip0)">
<g opacity="0.5">
<path opacity="0.5" d="M434.358 34.6023L172.564 35.2394C171.151 35.2425 169.752 35.5238 168.448 36.0671C167.144 36.6104 165.96 37.4052 164.963 38.406C163.966 39.4067 163.177 40.5939 162.64 41.8996C162.102 43.2054 161.828 44.6041 161.832 46.0158L163.021 535.191C163.024 536.602 163.306 538 163.85 539.302C164.393 540.605 165.189 541.789 166.191 542.784C167.193 543.78 168.381 544.569 169.688 545.105C170.995 545.642 172.395 545.916 173.808 545.912L435.602 545.275C437.016 545.272 438.415 544.99 439.72 544.446C441.025 543.902 442.209 543.107 443.206 542.105C444.203 541.104 444.992 539.916 445.529 538.609C446.066 537.302 446.339 535.903 446.334 534.49L445.145 45.3157C445.141 43.9046 444.859 42.5082 444.314 41.2062C443.77 39.9041 442.974 38.7219 441.973 37.7271C440.971 36.7323 439.783 35.9443 438.477 35.4081C437.17 34.872 435.771 34.5981 434.358 34.6023Z" fill="url(#paint0_linear)"/>
</g>
<path d="M430.566 41.2809L176.386 41.9014C170.455 41.9158 165.658 46.7312 165.673 52.6567L166.836 528.285C166.851 534.21 171.671 539.002 177.602 538.988L431.782 538.367C437.713 538.353 442.51 533.537 442.495 527.612L441.332 51.9838C441.317 46.0583 436.497 41.2664 430.566 41.2809Z" fill="white"/>
<path opacity="0.4" d="M372.756 53.8817C371.972 59.1542 369.326 63.9725 365.295 67.4652C361.265 70.958 356.116 72.8947 350.781 72.9251L255.567 73.1532C250.235 73.1437 245.083 71.2301 241.04 67.7581C236.997 64.286 234.33 59.4843 233.521 54.2199L183.091 54.3458C181.716 54.3489 180.355 54.6225 179.085 55.1511C177.816 55.6798 176.663 56.453 175.693 57.4266C174.723 58.4003 173.954 59.5553 173.431 60.8257C172.907 62.0962 172.64 63.4572 172.643 64.8311L173.737 516.076C173.74 517.451 174.014 518.811 174.544 520.08C175.074 521.348 175.848 522.5 176.824 523.47C177.799 524.439 178.956 525.207 180.229 525.729C181.501 526.252 182.865 526.518 184.24 526.514L425.17 525.932C426.545 525.929 427.906 525.655 429.176 525.127C430.445 524.598 431.598 523.825 432.568 522.851C433.538 521.878 434.307 520.723 434.83 519.452C435.354 518.182 435.621 516.821 435.618 515.447L434.524 64.2018C434.521 62.8279 434.247 61.4682 433.718 60.2001C433.189 58.932 432.415 57.7804 431.44 56.8112C430.465 55.8419 429.309 55.0739 428.038 54.551C426.766 54.0281 425.404 53.7606 424.028 53.7637L372.756 53.8817Z" fill="#25D366"/>
<path d="M330.139 59.6008L271.866 60.4747C270.996 60.4878 270.302 61.2026 270.315 62.0714L270.325 62.7635C270.339 63.6322 271.054 64.3259 271.924 64.3129L330.197 63.439C331.066 63.426 331.761 62.7111 331.748 61.8424L331.737 61.1502C331.724 60.2815 331.009 59.5878 330.139 59.6008Z" fill="#DBDBDB"/>
<path d="M344.814 63.2121C346.088 63.193 347.106 62.1458 347.086 60.8731C347.067 59.6003 346.019 58.5841 344.745 58.6032C343.471 58.6223 342.454 59.6695 342.473 60.9422C342.492 62.215 343.54 63.2312 344.814 63.2121Z" fill="#DBDBDB"/>
<g opacity="0.5">
<path opacity="0.5" d="M336.254 396.939C336.259 383.514 332.785 370.316 326.169 358.631C319.553 346.946 310.021 337.171 298.502 330.257C286.983 323.344 273.868 319.529 260.434 319.182C247.001 318.835 233.706 321.97 221.845 328.279C209.984 334.589 199.96 343.859 192.749 355.188C185.538 366.516 181.386 379.517 180.697 392.924C180.008 406.332 182.806 419.689 188.817 431.696C194.829 443.702 203.85 453.949 215.002 461.439L215.049 461.786C217.592 464.219 220.591 466.126 223.876 467.394L223.978 467.048C227.623 470.194 242.969 475.173 260.598 475.126H260.983C272.148 475.126 284.273 473.16 294.934 467.394C294.934 467.394 295.029 467.189 295.17 466.804C297.871 465.537 300.349 463.842 302.508 461.786C302.55 461.487 302.592 461.193 302.634 460.905C313.007 453.762 321.486 444.208 327.342 433.065C333.199 421.922 336.257 409.524 336.254 396.939Z" fill="url(#paint1_linear)"/>
</g>
<path d="M258.417 472.373C300.114 472.373 333.916 438.603 333.916 396.947C333.916 355.29 300.114 321.52 258.417 321.52C216.72 321.52 182.918 355.29 182.918 396.947C182.918 438.603 216.72 472.373 258.417 472.373Z" fill="#F5F5F5"/>
<path d="M229.576 427.962C229.576 427.962 211.585 429.433 216.349 462.171C218.812 464.538 221.721 466.394 224.907 467.63L235.024 433.421L229.576 427.962Z" fill="#FDA57D"/>
<path d="M287.95 427.962C287.95 427.962 305.941 429.433 301.178 462.171C298.714 464.538 295.805 466.394 292.619 467.63L282.502 433.405L287.95 427.962Z" fill="#FDA57D"/>
<path d="M230.355 374.308C230.355 374.308 221.797 399.196 217.128 396.836C217.128 396.836 262.18 435.718 301.965 396.836C301.965 396.836 294.958 384.393 284.84 374.285L230.355 374.308Z" fill="#333333"/>
<path d="M259.236 405.41C277.721 405.41 292.706 390.44 292.706 371.972C292.706 353.505 277.721 338.534 259.236 338.534C240.75 338.534 225.765 353.505 225.765 371.972C225.765 390.44 240.75 405.41 259.236 405.41Z" fill="#333333"/>
<path opacity="0.1" d="M287.604 427.962H229.237L223.789 451.292C223.789 451.292 220.592 462.092 224.576 466.843C228.56 471.594 265.739 482.394 293.076 467.63C295.46 461.412 295.737 454.584 293.863 448.193C290.714 437.307 293.076 447.407 293.076 447.407L287.604 427.962Z" fill="black"/>
<path opacity="0.1" d="M288.383 427.962H230.009L224.561 451.292C224.561 451.292 221.364 462.092 225.348 466.843C229.332 471.594 266.511 482.394 293.848 467.63C296.232 461.412 296.509 454.584 294.635 448.193C291.486 437.307 293.848 447.407 293.848 447.407L288.383 427.962Z" fill="black"/>
<path d="M287.95 427.962H229.576L224.128 451.292C224.128 451.292 220.931 462.092 224.915 466.843C228.899 471.594 266.078 482.394 293.414 467.63C295.799 461.412 296.075 454.584 294.202 448.193C291.052 437.307 293.414 447.407 293.414 447.407L287.95 427.962Z" fill="#25D366"/>
<path opacity="0.1" d="M247.48 408.604H270.849V431.179C270.849 432.197 270.648 433.204 270.259 434.144C269.869 435.084 269.298 435.938 268.578 436.658C267.857 437.377 267.002 437.948 266.061 438.337C265.121 438.727 264.112 438.927 263.094 438.927H255.22C253.163 438.927 251.191 438.111 249.736 436.658C248.282 435.205 247.465 433.234 247.465 431.179V408.604H247.48Z" fill="black"/>
<path d="M247.48 407.747H270.849V430.322C270.849 431.339 270.648 432.347 270.259 433.287C269.869 434.227 269.298 435.081 268.578 435.8C267.857 436.52 267.002 437.091 266.061 437.48C265.121 437.869 264.112 438.07 263.094 438.07H255.22C253.163 438.07 251.191 437.253 249.736 435.8C248.282 434.347 247.465 432.377 247.465 430.322V407.747H247.48Z" fill="#FDA57D"/>
<path opacity="0.1" d="M247.528 411.105C255.054 413.915 263.339 413.937 270.881 411.168V408.305H247.528V411.105Z" fill="black"/>
<path d="M259.236 412.671C277.721 412.671 292.706 397.7 292.706 379.233C292.706 360.765 277.721 345.794 259.236 345.794C240.75 345.794 225.765 360.765 225.765 379.233C225.765 397.7 240.75 412.671 259.236 412.671Z" fill="#FDA57D"/>
<path d="M227.245 366.529H291.068C291.068 366.529 285.62 340.784 261.495 342.428C237.371 344.072 227.245 366.529 227.245 366.529Z" fill="#333333"/>
<path d="M226.466 383.637C228.184 383.637 229.576 381.028 229.576 377.809C229.576 374.59 228.184 371.98 226.466 371.98C224.748 371.98 223.356 374.59 223.356 377.809C223.356 381.028 224.748 383.637 226.466 383.637Z" fill="#FDA57D"/>
<path d="M291.84 383.637C293.557 383.637 294.95 381.028 294.95 377.809C294.95 374.59 293.557 371.98 291.84 371.98C290.122 371.98 288.73 374.59 288.73 377.809C288.73 381.028 290.122 383.637 291.84 383.637Z" fill="#FDA57D"/>
<path opacity="0.1" d="M227.245 367.394H291.068C291.068 367.394 285.62 341.649 261.495 343.293C237.371 344.937 227.245 367.394 227.245 367.394Z" fill="black"/>
<g opacity="0.5">
<path opacity="0.5" d="M273.164 191.811C273.159 178.386 276.634 165.188 283.249 153.503C289.865 141.818 299.397 132.043 310.916 125.13C322.435 118.216 335.55 114.401 348.984 114.054C362.417 113.708 375.712 116.842 387.573 123.151C399.434 129.461 409.458 138.731 416.669 150.06C423.88 161.388 428.032 174.389 428.721 187.796C429.41 201.204 426.612 214.561 420.601 226.568C414.589 238.574 405.568 248.822 394.416 256.312L394.369 256.658C391.832 259.114 388.832 261.042 385.543 262.329L385.44 261.983C381.795 265.129 366.449 270.108 348.82 270.061H348.435C337.27 270.061 325.145 268.095 314.484 262.329C314.484 262.329 314.39 262.124 314.248 261.739C311.547 260.472 309.069 258.777 306.91 256.721C306.868 256.422 306.826 256.128 306.784 255.84C296.403 248.691 287.918 239.127 282.061 227.972C276.204 216.817 273.151 204.407 273.164 191.811Z" fill="url(#paint2_linear)"/>
</g>
<path d="M350.994 267.245C392.691 267.245 426.493 233.476 426.493 191.819C426.493 150.162 392.691 116.392 350.994 116.392C309.296 116.392 275.494 150.162 275.494 191.819C275.494 233.476 309.296 267.245 350.994 267.245Z" fill="#F5F5F5"/>
<path d="M321.397 220.545C321.397 220.545 303.406 222.016 308.17 254.754C310.634 257.116 313.543 258.966 316.728 260.197L326.845 225.988L321.397 220.545Z" fill="#BE7C5E"/>
<path d="M379.763 220.545C379.763 220.545 397.754 222.016 392.991 254.754C390.526 257.116 387.617 258.966 384.432 260.197L374.315 225.988L379.763 220.545Z" fill="#BE7C5E"/>
<path d="M322.169 166.892C322.169 166.892 320.783 170.919 318.822 175.544C314.539 185.77 319.429 224.871 329.672 229.033C341.167 233.752 356.285 236.71 371.992 230.991C385.637 226.02 389.849 181.436 380.196 170.62C379.063 169.346 377.882 168.079 376.645 166.852L322.169 166.892Z" fill="#333333"/>
<path d="M351.049 198.001C369.534 198.001 384.519 183.031 384.519 164.563C384.519 146.096 369.534 131.125 351.049 131.125C332.563 131.125 317.578 146.096 317.578 164.563C317.578 183.031 332.563 198.001 351.049 198.001Z" fill="#333333"/>
<path opacity="0.1" d="M379.425 220.545H321.051L315.602 243.876C315.602 243.876 312.405 254.675 316.389 259.426C320.373 264.178 357.552 274.977 384.889 260.213C387.273 253.995 387.55 247.167 385.676 240.776C382.527 229.89 384.889 239.99 384.889 239.99L379.425 220.545Z" fill="black"/>
<path opacity="0.1" d="M380.196 220.545H321.822L316.374 243.876C316.374 243.876 313.177 254.675 317.161 259.426C321.145 264.178 358.324 274.977 385.661 260.213C388.045 253.995 388.322 247.167 386.448 240.776C383.299 229.89 385.661 239.99 385.661 239.99L380.196 220.545Z" fill="black"/>
<path d="M379.763 220.545H321.397L315.949 243.876C315.949 243.876 312.752 254.675 316.736 259.426C320.72 264.178 357.899 274.977 385.235 260.213C387.62 253.995 387.896 247.167 386.023 240.776C382.873 229.89 385.235 239.99 385.235 239.99L379.763 220.545Z" fill="#F55F44"/>
<path opacity="0.1" d="M339.293 201.195H362.646V223.77C362.646 225.825 361.829 227.796 360.375 229.249C358.92 230.702 356.948 231.518 354.891 231.518H347.017C344.961 231.518 342.988 230.702 341.533 229.249C340.079 227.796 339.262 225.825 339.262 223.77V201.195H339.293Z" fill="black"/>
<path d="M339.293 200.33H362.646V222.905C362.646 224.96 361.829 226.931 360.375 228.384C358.92 229.837 356.948 230.653 354.891 230.653H347.017C344.961 230.653 342.988 229.837 341.533 228.384C340.079 226.931 339.262 224.96 339.262 222.905V200.33H339.293Z" fill="#BE7C5E"/>
<path opacity="0.1" d="M339.349 203.688C346.875 206.498 355.16 206.52 362.701 203.751V200.888H339.349V203.688Z" fill="black"/>
<path d="M351.049 205.254C369.534 205.254 384.519 190.283 384.519 171.816C384.519 153.348 369.534 138.378 351.049 138.378C332.563 138.378 317.578 153.348 317.578 171.816C317.578 190.283 332.563 205.254 351.049 205.254Z" fill="#BE7C5E"/>
<path d="M319.059 159.12H382.881C382.881 159.12 377.433 133.375 353.308 135.019C329.184 136.663 319.059 159.12 319.059 159.12Z" fill="#333333"/>
<path d="M318.279 176.221C319.997 176.221 321.389 173.611 321.389 170.392C321.389 167.173 319.997 164.563 318.279 164.563C316.561 164.563 315.169 167.173 315.169 170.392C315.169 173.611 316.561 176.221 318.279 176.221Z" fill="#BE7C5E"/>
<path d="M383.653 176.221C385.371 176.221 386.763 173.611 386.763 170.392C386.763 167.173 385.371 164.563 383.653 164.563C381.935 164.563 380.543 167.173 380.543 170.392C380.543 173.611 381.935 176.221 383.653 176.221Z" fill="#BE7C5E"/>
<path opacity="0.1" d="M319.059 159.985H382.881C382.881 159.985 377.433 134.24 353.308 135.884C329.184 137.528 319.059 159.985 319.059 159.985Z" fill="black"/>
<g opacity="0.5">
<path opacity="0.5" d="M3.93676 124.368V236.631H180.981C180.981 236.631 194.051 262.329 216.522 269.802C216.522 269.802 209.349 251.6 216.837 236.631H266.125V124.368H3.93676Z" fill="url(#paint3_linear)"/>
</g>
<path d="M11.0229 128.215V234.405H188.177C188.177 234.405 188.177 255.643 209.436 262.722C209.436 262.722 202.349 248.564 209.436 234.405H259.039V128.215H11.0229Z" fill="white"/>
<path d="M174.005 149.453H32.2814V163.611H174.005V149.453Z" fill="#25D366"/>
<path d="M223.608 170.691H32.2814V184.85H223.608V170.691Z" fill="#25D366"/>
<path d="M202.349 191.929H32.2814V206.088H202.349V191.929Z" fill="#25D366"/>
<g opacity="0.5">
<path opacity="0.5" d="M606.261 340.682V452.944H429.225C429.225 452.944 416.155 478.642 393.676 486.115C393.676 486.115 400.849 467.913 393.361 452.944H344.073V340.682H606.261Z" fill="url(#paint4_linear)"/>
</g>
<path d="M599.175 344.528V450.718H422.021C422.021 450.718 422.021 471.956 400.762 479.036C400.762 479.036 407.848 464.877 400.762 450.718H351.159V344.528H599.175Z" fill="white"/>
<path d="M522.014 365.766H380.291V379.925H522.014V365.766Z" fill="#25D366"/>
<path d="M571.617 387.004H380.291V401.163H571.617V387.004Z" fill="#25D366"/>
<path d="M550.359 408.242H380.291V422.401H550.359V408.242Z" fill="#25D366"/>
<g opacity="0.5">
<path opacity="0.5" d="M68.4996 561.628H66.1375V575H68.4996V561.628Z" fill="#47E6B1"/>
<path opacity="0.5" d="M74.0111 569.494V567.134H60.6261V569.494H74.0111Z" fill="#47E6B1"/>
</g>
<g opacity="0.5">
<path opacity="0.5" d="M500.756 151.026H498.394V164.398H500.756V151.026Z" fill="#47E6B1"/>
<path opacity="0.5" d="M506.267 158.892V156.532H492.882V158.892H506.267Z" fill="#47E6B1"/>
</g>
<g opacity="0.5">
<path opacity="0.5" d="M551.146 481.395H548.784V494.767H551.146V481.395Z" fill="#47E6B1"/>
<path opacity="0.5" d="M556.658 489.261V486.902H543.273V489.261H556.658Z" fill="#47E6B1"/>
</g>
<g opacity="0.5">
<path opacity="0.5" d="M402.337 0H399.975V13.3721H402.337V0Z" fill="#47E6B1"/>
<path opacity="0.5" d="M407.848 7.86595V5.50616L394.463 5.50616V7.86595L407.848 7.86595Z" fill="#47E6B1"/>
</g>
<path opacity="0.5" d="M203.688 560.299C203.043 560.009 202.527 559.494 202.237 558.851C201.947 558.207 201.903 557.48 202.113 556.806C202.147 556.701 202.168 556.593 202.176 556.484C202.196 556.172 202.115 555.863 201.945 555.601C201.775 555.34 201.524 555.14 201.231 555.032C200.939 554.925 200.618 554.914 200.319 555.003C200.02 555.091 199.757 555.274 199.57 555.524C199.507 555.612 199.454 555.707 199.413 555.807C199.123 556.451 198.608 556.967 197.963 557.256C197.319 557.546 196.591 557.59 195.917 557.38C195.812 557.347 195.704 557.326 195.594 557.317C195.282 557.297 194.973 557.378 194.711 557.548C194.449 557.718 194.249 557.968 194.141 558.261C194.033 558.554 194.023 558.874 194.112 559.173C194.2 559.472 194.383 559.734 194.633 559.921C194.721 559.984 194.817 560.037 194.917 560.078C195.561 560.368 196.077 560.883 196.367 561.526C196.658 562.17 196.702 562.897 196.491 563.571C196.458 563.675 196.437 563.784 196.429 563.893C196.408 564.205 196.49 564.514 196.66 564.776C196.83 565.037 197.08 565.237 197.373 565.345C197.666 565.452 197.986 565.463 198.286 565.374C198.585 565.286 198.848 565.103 199.035 564.853C199.098 564.765 199.151 564.67 199.192 564.57C199.482 563.926 199.997 563.41 200.641 563.121C201.285 562.831 202.013 562.787 202.688 562.997C202.793 563.03 202.901 563.051 203.011 563.06C203.322 563.08 203.632 562.999 203.894 562.829C204.156 562.658 204.355 562.408 204.463 562.116C204.571 561.823 204.582 561.503 204.493 561.204C204.404 560.905 204.221 560.643 203.971 560.456C203.883 560.393 203.788 560.34 203.688 560.299Z" fill="#4D8AF0"/>
<path opacity="0.5" d="M45.5877 310.673C44.9432 310.384 44.4271 309.869 44.137 309.225C43.8468 308.582 43.8027 307.854 44.013 307.181C44.0466 307.076 44.0678 306.968 44.076 306.858C44.0961 306.547 44.0149 306.237 43.8447 305.976C43.6745 305.714 43.4242 305.515 43.1312 305.407C42.8383 305.299 42.5183 305.289 42.2189 305.377C41.9195 305.466 41.6568 305.649 41.4698 305.898C41.4065 305.986 41.3536 306.081 41.3123 306.182C41.0229 306.825 40.5074 307.341 39.8632 307.631C39.2191 307.921 38.491 307.965 37.8165 307.755C37.7118 307.721 37.6034 307.7 37.4937 307.692C37.1821 307.672 36.8723 307.753 36.6106 307.923C36.3488 308.093 36.1491 308.343 36.0411 308.636C35.9331 308.928 35.9227 309.248 36.0113 309.547C36.1 309.846 36.283 310.109 36.5331 310.295C36.6211 310.359 36.7163 310.412 36.8166 310.453C37.461 310.742 37.9771 311.257 38.2672 311.901C38.5574 312.544 38.6015 313.271 38.3913 313.945C38.3576 314.05 38.3365 314.158 38.3283 314.268C38.2953 314.585 38.3679 314.904 38.5349 315.175C38.7018 315.447 38.9538 315.655 39.2516 315.769C39.5495 315.883 39.8767 315.895 40.1823 315.805C40.488 315.714 40.7551 315.525 40.9423 315.267C41.0056 315.179 41.0585 315.084 41.0998 314.984C41.3892 314.34 41.9047 313.824 42.5489 313.534C43.193 313.244 43.9211 313.2 44.5956 313.41C44.7003 313.444 44.8087 313.465 44.9184 313.473C45.23 313.493 45.5398 313.412 45.8015 313.242C46.0633 313.072 46.263 312.822 46.371 312.53C46.479 312.237 46.4894 311.917 46.4007 311.618C46.3121 311.319 46.1291 311.056 45.879 310.87C45.7906 310.792 45.6927 310.726 45.5877 310.673Z" fill="#4D8AF0"/>
<path opacity="0.5" d="M131.409 379.107C130.765 378.818 130.248 378.302 129.958 377.659C129.668 377.015 129.624 376.288 129.834 375.614C129.868 375.51 129.889 375.401 129.897 375.292C129.917 374.98 129.836 374.671 129.666 374.409C129.496 374.148 129.246 373.948 128.953 373.841C128.66 373.733 128.34 373.722 128.04 373.811C127.741 373.899 127.478 374.082 127.291 374.332C127.228 374.42 127.175 374.515 127.134 374.615C126.844 375.259 126.329 375.775 125.685 376.065C125.04 376.354 124.312 376.398 123.638 376.188C123.533 376.155 123.425 376.134 123.315 376.125C123.003 376.105 122.694 376.186 122.432 376.357C122.17 376.527 121.97 376.777 121.862 377.069C121.754 377.362 121.744 377.682 121.833 377.981C121.921 378.28 122.104 378.542 122.354 378.729C122.442 378.792 122.538 378.845 122.638 378.886C123.282 379.176 123.798 379.691 124.089 380.334C124.379 380.978 124.423 381.705 124.213 382.379C124.179 382.484 124.158 382.592 124.15 382.701C124.117 383.018 124.189 383.337 124.356 383.609C124.523 383.88 124.775 384.089 125.073 384.203C125.371 384.317 125.698 384.329 126.004 384.238C126.309 384.147 126.576 383.958 126.764 383.7C126.827 383.612 126.88 383.517 126.921 383.417C127.211 382.773 127.726 382.258 128.37 381.968C129.014 381.678 129.742 381.634 130.417 381.844C130.522 381.878 130.63 381.899 130.74 381.907C131.051 381.927 131.361 381.846 131.623 381.676C131.885 381.506 132.084 381.256 132.192 380.963C132.3 380.67 132.311 380.351 132.222 380.052C132.133 379.753 131.95 379.49 131.7 379.303C131.612 379.226 131.514 379.16 131.409 379.107Z" fill="#4D8AF0"/>
<path opacity="0.5" d="M621.142 564.743C620.497 564.454 619.981 563.939 619.691 563.295C619.401 562.652 619.357 561.924 619.567 561.25C619.601 561.146 619.622 561.037 619.63 560.928C619.65 560.617 619.569 560.307 619.399 560.046C619.229 559.784 618.978 559.585 618.685 559.477C618.392 559.369 618.072 559.358 617.773 559.447C617.474 559.535 617.211 559.718 617.024 559.968C616.961 560.056 616.908 560.151 616.866 560.251C616.577 560.895 616.061 561.411 615.417 561.701C614.773 561.99 614.045 562.035 613.371 561.825C613.266 561.791 613.157 561.77 613.048 561.762C612.736 561.742 612.426 561.823 612.165 561.993C611.903 562.163 611.703 562.413 611.595 562.705C611.487 562.998 611.477 563.318 611.565 563.617C611.654 563.916 611.837 564.178 612.087 564.365C612.175 564.429 612.27 564.481 612.371 564.523C613.015 564.812 613.531 565.327 613.821 565.97C614.111 566.614 614.156 567.341 613.945 568.015C613.912 568.12 613.891 568.228 613.882 568.338C613.849 568.654 613.922 568.973 614.089 569.245C614.256 569.516 614.508 569.725 614.806 569.839C615.104 569.953 615.431 569.965 615.736 569.874C616.042 569.784 616.309 569.594 616.496 569.337C616.56 569.249 616.613 569.154 616.654 569.053C616.943 568.41 617.459 567.894 618.103 567.604C618.747 567.314 619.475 567.27 620.15 567.48C620.254 567.514 620.363 567.535 620.473 567.543C620.784 567.563 621.094 567.482 621.356 567.312C621.617 567.142 621.817 566.892 621.925 566.599C622.033 566.307 622.044 565.987 621.955 565.688C621.866 565.389 621.683 565.126 621.433 564.939C621.345 564.862 621.247 564.796 621.142 564.743Z" fill="#4D8AF0"/>
<path opacity="0.5" d="M537.761 55.0616C540.37 55.0616 542.485 52.9485 542.485 50.342C542.485 47.7355 540.37 45.6224 537.761 45.6224C535.152 45.6224 533.037 47.7355 533.037 50.342C533.037 52.9485 535.152 55.0616 537.761 55.0616Z" fill="#4D8AF0"/>
<path opacity="0.5" d="M81.8846 64.5007C84.4936 64.5007 86.6087 62.3876 86.6087 59.7811C86.6087 57.1746 84.4936 55.0616 81.8846 55.0616C79.2755 55.0616 77.1605 57.1746 77.1605 59.7811C77.1605 62.3876 79.2755 64.5007 81.8846 64.5007Z" fill="#47E6B1"/>
<path opacity="0.5" d="M542.485 276.881C545.094 276.881 547.209 274.768 547.209 272.161C547.209 269.555 545.094 267.442 542.485 267.442C539.876 267.442 537.761 269.555 537.761 272.161C537.761 274.768 539.876 276.881 542.485 276.881Z" fill="#F55F44"/>
</g>
<defs>
<linearGradient id="paint0_linear" x1="192.717" y1="554.769" x2="415.092" y2="25.5738" gradientUnits="userSpaceOnUse">
<stop stop-color="#808080" stop-opacity="0.25"/>
<stop offset="0.54" stop-color="#808080" stop-opacity="0.12"/>
<stop offset="1" stop-color="#808080" stop-opacity="0.1"/>
</linearGradient>
<linearGradient id="paint1_linear" x1="83179.8" y1="107717" x2="83179.8" y2="76788.3" gradientUnits="userSpaceOnUse">
<stop stop-color="#808080" stop-opacity="0.25"/>
<stop offset="0.54" stop-color="#808080" stop-opacity="0.12"/>
<stop offset="1" stop-color="#808080" stop-opacity="0.1"/>
</linearGradient>
<linearGradient id="paint2_linear" x1="93271.8" y1="66865.1" x2="93271.8" y2="35923.7" gradientUnits="userSpaceOnUse">
<stop stop-color="#808080" stop-opacity="0.25"/>
<stop offset="0.54" stop-color="#808080" stop-opacity="0.12"/>
<stop offset="1" stop-color="#808080" stop-opacity="0.1"/>
</linearGradient>
<linearGradient id="paint3_linear" x1="98717.8" y1="62297.1" x2="98717.8" y2="35408" gradientUnits="userSpaceOnUse">
<stop stop-color="#808080" stop-opacity="0.25"/>
<stop offset="0.54" stop-color="#808080" stop-opacity="0.12"/>
<stop offset="1" stop-color="#808080" stop-opacity="0.1"/>
</linearGradient>
<linearGradient id="paint4_linear" x1="-866182" y1="102508" x2="-866182" y2="75618.5" gradientUnits="userSpaceOnUse">
<stop stop-color="#808080" stop-opacity="0.25"/>
<stop offset="0.54" stop-color="#808080" stop-opacity="0.12"/>
<stop offset="1" stop-color="#808080" stop-opacity="0.1"/>
</linearGradient>
<clipPath id="clip0">
<rect width="622" height="575" fill="white"/>
</clipPath>
</defs>
</svg>
